# xmcd
#
# Track frame offsets: 
#        150
#        12639
#        23003
#        35659
#        51868
#        63720
#        81254
#        99938
#        109409
#        121756
#        134517
#        147901
#        158390
#        178262
#        190053
#        207720
#        217666
#        231473
#        248034
#        257763
#
# Disc length: 3705 seconds
#
# Revision: 0
# Processed by: cddbd v1.5.2PL0 Copyright (c) Steve Scherf et al.
# Submitted via: ExactAudioCopy v1.1
#
DISCID=220e7714
DTITLE=Jiří Grossmann - Své banjo odhazuji v dál
DYEAR=1980
DGENRE=Musical
TTITLE0=Své banjo odhazuji v dál
TTITLE1=Až tě náhodou potkám
TTITLE2=Ano, pane Jiří
TTITLE3=Blizzard
TTITLE4=Jackson
TTITLE5=Jako kotě si příst
TTITLE6=Lastura
TTITLE7=Je to mojí chloubou
TTITLE8=Vzdálené bubny
TTITLE9=Baronet Ambrož
TTITLE10=Barmanka
TTITLE11=Podzim, podzim přichází
TTITLE12=Tommy
TTITLE13=Pedagogická píseň lásky
TTITLE14=Sadie
TTITLE15=Drahý můj
TTITLE16=Pupákova píseň lásky
TTITLE17=Stařec a hlas kytar
TTITLE18=Gimi Det Ding
TTITLE19=José
EXTD=
EXTT0=
EXTT1=
EXTT2=
EXTT3=
EXTT4=
EXTT5=
EXTT6=
EXTT7=
EXTT8=
EXTT9=
EXTT10=
EXTT11=
EXTT12=
EXTT13=
EXTT14=
EXTT15=
EXTT16=
EXTT17=
EXTT18=
EXTT19=
PLAYORDER=
